<svg viewBox="0 0 2000 2000">
<rect fill="#2b98f0" x="0" y="0" width="2000" height="2000" rx="300" ry="300" />
<g fill="none" stroke="#ffffff" stroke-width="65" stroke-linecap="round" stroke-linejoin="round">
	<polyline points="714,834 562,776 474,608" />
	<polyline points="678,1052 542,1070 414,1190" />
	<polyline points="692,1312 580,1364 478,1566" />
	<polyline points="1295,834 1438,776 1526,608" />
	<polyline points="1322,1052 1458,1070 1586,1190" />
	<polyline points="1308,1312 1420,1364 1522,1566" />
	<polyline points="1000,713 1000,1537" />
	<path d="M 804,714 C 742.50,746.50 729,790 714,834.50 699,879 677,1007 678.50,1052 680,1097 671,1268 693,1312 715,1356 770,1537 997.50,1537.50 1225,1538 1281,1379 1306,1312.50 1331,1246 1324,1103 1323,1052.50 1322,1002 1306,872 1291,835 1276,798 1259,744 1198,713 1131,714 863,711.50 804,714 Z" />
	<path d="M 999.59,372.31 C 1062.09,371.92 1162.93,442.47 1196.29,504.97 1196.29,504.97 1197.44,709.72 1197.05,709.72 1196.67,709.72 800.21,709.72 800.21,709.72 800.21,709.72 801.36,562.10 802.51,509.57 822.06,450.91 937.09,372.69 999.59,372.31 Z" />
</g>
</svg>
