<svg viewBox="0 0 2000 2000">
<rect fill="#333333" x="0" y="0" width="2000" height="2000" rx="300" ry="300" />
<path fill="#999999" d="M 293,331 C 293,331 308,332 308,332 308,332 464,332 464,332 464,332 471.37,332.99 471.37,332.99 471.37,332.99 478.25,345 478.25,345 478.25,345 491.25,370 491.25,370 491.25,370 538.25,461 538.25,461 538.25,461 558,501 558,501 558,501 530,525.83 530,525.83 530,525.83 486,565.17 486,565.17 486,565.17 462,586 462,586 462,586 448.96,572 448.96,572 448.96,572 414.01,537 414.01,537 414.01,537 403.99,526 403.99,526 403.99,526 324.01,445 324.01,445 324.01,445 311,431 311,431 311,431 252,371 252,371 252,371 214,331 214,331 214,331 293,331 293,331 Z M 623,547.59 C 641.71,550.55 659.64,559.41 672.91,573.04 683.15,583.55 690.29,597.22 697.30,610 697.30,610 719.30,649 719.30,649 719.30,649 748.14,700 748.14,700 748.14,700 841.14,865 841.14,865 841.14,865 885.14,943 885.14,943 885.14,943 908.90,984.95 908.90,984.95 913.49,991.08 928.52,993.29 936,995.42 936,995.42 1009,1015.86 1009,1015.86 1009,1015.86 1190,1066.58 1190,1066.58 1190,1066.58 1288,1094.42 1288,1094.42 1312.61,1103.68 1333.19,1115.91 1353,1133.29 1353,1133.29 1384.04,1165 1384.04,1165 1384.04,1165 1419.99,1201 1419.99,1201 1419.99,1201 1429.04,1211 1429.04,1211 1429.04,1211 1464.99,1247 1464.99,1247 1464.99,1247 1475.01,1258 1475.01,1258 1475.01,1258 1509.99,1293 1509.99,1293 1509.99,1293 1519.04,1303 1519.04,1303 1519.04,1303 1554.99,1339 1554.99,1339 1554.99,1339 1564.04,1349 1564.04,1349 1564.04,1349 1603.72,1389 1603.72,1389 1603.72,1389 1642,1428 1642,1428 1642,1428 1655.01,1442 1655.01,1442 1655.01,1442 1698.09,1486 1698.09,1486 1712.31,1501.27 1729.31,1513.36 1737.71,1533 1750.60,1563.09 1739.20,1598.73 1711,1615.55 1696.48,1624.21 1687.35,1625.19 1671,1625 1646.99,1624.72 1633.72,1610.72 1618,1595 1618,1595 1583,1560 1583,1560 1583,1560 1558.99,1535 1558.99,1535 1558.99,1535 1505,1481 1505,1481 1505,1481 1493.99,1469 1493.99,1469 1493.99,1469 1450,1425 1450,1425 1450,1425 1411,1385 1411,1385 1411,1385 1393,1367.51 1393,1367.51 1389.45,1365.01 1381.42,1363.28 1377,1362.12 1377,1362.12 1352,1355.12 1352,1355.12 1352,1355.12 1267,1331.29 1267,1331.29 1267,1331.29 986,1252.42 986,1252.42 986,1252.42 912,1231.71 912,1231.71 881.23,1222.87 864.28,1219.15 837,1199.96 808.46,1179.89 801.08,1160.78 784.58,1132 784.58,1132 729.85,1036 729.85,1036 729.85,1036 577.58,769 577.58,769 577.58,769 544.58,711 544.58,711 536.19,696.37 524.15,677.89 519.74,662 516.49,650.27 516.86,642.90 517,631 517.09,623.94 519.10,615.69 521.33,609 528.99,586.01 544.12,567.24 566,556.27 579.42,549.55 587.66,548.47 602,546.42 609.03,545.57 616.04,546.49 623,547.59 Z M 1240,1017.88 C 1240,1017.88 1181,1001.42 1181,1001.42 1181,1001.42 1024,957.71 1024,957.71 1024,957.71 978,944.88 978,944.88 963.97,941.18 950.63,938.51 942.48,925 934.27,911.40 937.32,900.14 941.15,886 941.15,886 960,819 960,819 962.81,809.25 966.18,793.15 971.27,785 977.61,774.84 990.84,767.30 1003,768.18 1012.07,768.84 1039.71,777.33 1050,780.29 1050,780.29 1129,802.58 1129,802.58 1129,802.58 1240,833.85 1240,833.85 1240,833.85 1279,844.85 1279,844.85 1279,844.85 1310,854 1310,854 1310,854 1280.58,960 1280.58,960 1280.58,960 1270.29,997 1270.29,997 1270.29,997 1263,1024 1263,1024 1263,1024 1240,1017.88 1240,1017.88 Z M 1374,870.85 C 1398.79,877.56 1415.12,882.46 1432.70,903 1469.21,945.66 1457.37,1012.95 1407,1038.97 1387.35,1049.13 1365.61,1051.97 1344,1047.55 1344,1047.55 1304,1036 1304,1036 1304,1036 1319.42,981 1319.42,981 1319.42,981 1352,865 1352,865 1352,865 1374,870.85 1374,870.85 Z M 1570,1251 C 1551.83,1251.21 1533.80,1247.20 1517,1240.40 1503.26,1234.83 1491.13,1226.23 1480,1216.58 1470.36,1208.21 1459.58,1193.46 1453.76,1182 1450.50,1175.59 1447.64,1169.87 1445.35,1163 1430.22,1117.61 1441.54,1064.50 1475.09,1030.04 1488.14,1016.64 1504.70,1006.44 1522,999.60 1533.84,994.92 1552.27,991.15 1565,991 1624.62,990.31 1679.06,1028.03 1693.87,1087 1695.81,1094.71 1697.90,1104.06 1698.10,1112 1698.10,1112 1698.10,1127 1698.10,1127 1698,1129.23 1697.59,1135.20 1698.10,1136.90 1699.47,1139.64 1702.56,1140.95 1705,1142.30 1705,1142.30 1721,1151.23 1721,1151.23 1721,1151.23 1787,1188 1787,1188 1783.48,1194.57 1770.88,1206.66 1765.28,1213 1765.28,1213 1712.17,1271 1712.17,1271 1712.17,1271 1692.04,1293 1692.04,1293 1687.64,1297.62 1685.94,1301.18 1680,1304 1680,1304 1644.13,1257 1644.13,1257 1644.13,1257 1629,1236 1629,1236 1609.82,1244.25 1591.19,1250.75 1570,1251 Z" />
</svg>
