<svg viewBox="0 0 2000 2000">
<rect fill="#2b98f0" x="0" y="0" width="2000" height="2000" rx="300" ry="300" />
<path fill="#ffffff" d="M 1083,195 C 1083,195 1050.20,249 1050.20,249 1048.03,252.61 1039.26,265.20 1040.41,268.83 1041.19,271.28 1046.83,275 1049,276.63 1049,276.63 1071,293.13 1071,293.13 1073.75,295.19 1081.18,299.41 1081.05,303.09 1080.98,305.17 1075.52,316.36 1074.31,319 1074.31,319 1059.26,352 1059.26,352 1059.26,352 1034.69,406 1034.69,406 1034.69,406 1010,460 1010,460 1010,460 942,423 942,423 942,423 909.20,479 909.20,479 909.20,479 853.01,574 853.01,574 853.01,574 683.99,860 683.99,860 683.99,860 631.99,948 631.99,948 631.99,948 606,992 606,992 606,992 657,1022.40 657,1022.40 660.03,1024.21 672.71,1030.82 673.36,1033.67 673.82,1035.65 669.91,1041.15 668.80,1043 668.80,1043 654.40,1067 654.40,1067 654.40,1067 607.42,1147 607.42,1147 607.42,1147 596.14,1167 596.14,1167 594.28,1170.33 591.50,1174.01 591.99,1178 592.61,1182.96 598.55,1192.04 601.67,1196 613.73,1211.34 637.27,1224.19 657,1224.96 660.91,1225.11 669.48,1224.25 672.68,1222.07 675.06,1220.44 677.98,1215.53 679.67,1213 679.67,1213 693,1193 693,1193 693,1193 740,1123 740,1123 740,1123 764,1086 764,1086 764,1086 802,1108.60 802,1108.60 802,1108.60 826,1122 826,1122 826,1122 873.01,1043 873.01,1043 873.01,1043 895,1006 895,1006 895,1006 965,1047.42 965,1047.42 965,1047.42 1028,1084 1028,1084 1029.07,1089.70 1039.54,1099.69 1043.53,1105 1052.60,1117.08 1066.69,1139.08 1069,1154 1069,1154 1070,1151 1070,1151 1070,1151 1070,1158 1070,1158 1072.77,1159.12 1071.60,1162.27 1072.03,1165 1073.29,1173.03 1073,1180.87 1073,1189 1073,1189 1072,1184 1072,1184 1072,1184 1069,1201 1069,1201 1066.73,1212.54 1064.37,1220.84 1060.81,1232 1058.64,1238.77 1053.07,1249.30 1054,1256 1054,1256 1052,1255 1052,1255 1051.80,1260.47 1042.40,1273.66 1039.20,1279 1039.20,1279 1007,1333 1007,1333 1007,1333 928.60,1464 928.60,1464 928.60,1464 887,1534 887,1534 887,1534 861,1519.42 861,1519.42 861,1519.42 804,1486.72 804,1486.72 804,1486.72 776,1471 776,1471 776,1471 796,1433 796,1433 796,1433 748,1405.01 748,1405.01 748,1405.01 673,1361.01 673,1361.01 673,1361.01 480,1247.99 480,1247.99 480,1247.99 403,1202.99 403,1202.99 403,1202.99 356,1176 356,1176 356,1176 345.20,1194 345.20,1194 345.20,1194 322.15,1233 322.15,1233 322.15,1233 309,1257 309,1257 309,1257 379,1296.85 379,1296.85 379,1296.85 405,1311 405,1311 405,1311 372,1368 372,1368 372,1368 533,1464.01 533,1464.01 533,1464.01 586,1495.42 586,1495.42 586,1495.42 612,1510 612,1510 612,1510 636.58,1471 636.58,1471 638.44,1468.02 644.23,1457.30 647.18,1456.44 649.50,1455.76 653.01,1458.16 655,1459.28 655,1459.28 672,1469.15 672,1469.15 672,1469.15 740,1508 740,1508 740,1508 725.01,1534 725.01,1534 725.01,1534 699,1578 699,1578 699,1578 626.60,1700 626.60,1700 626.60,1700 601.20,1743 601.20,1743 592.49,1757.52 593.69,1757.98 584,1758 584,1758 451,1758 451,1758 451,1758 434,1757 434,1757 434,1757 397,1757 397,1757 366.79,1757.05 336.16,1779.16 327.03,1808 323.62,1818.77 324.98,1822.57 325,1833 325,1833 325,1881 325,1881 325,1881 326,1895 326,1895 326,1895 622,1895 622,1895 622,1895 637,1894 637,1894 637,1894 764,1894 764,1894 764,1894 1045,1894 1045,1894 1045,1894 1060,1893 1060,1893 1060,1893 1188,1893 1188,1893 1188,1893 1469,1893 1469,1893 1469,1893 1484,1892 1484,1892 1484,1892 1601,1892 1601,1892 1601,1892 1601,1866 1601,1866 1601,1866 1600,1852 1600,1852 1599.73,1829.02 1601.72,1800.21 1586.47,1781.01 1575.15,1766.75 1544.48,1761.03 1527,1761 1527,1761 1393,1761 1393,1761 1390.46,1760.99 1386.52,1761.32 1384.60,1759.40 1382.42,1757.22 1383,1751.01 1383,1748 1383,1748 1382.04,1736 1382.04,1736 1382.04,1736 1382.04,1722 1382.04,1722 1382.04,1722 1381,1705 1381,1705 1381,1705 1379,1644 1379,1644 1379,1644 1378,1627 1378,1627 1378,1627 1376,1566 1376,1566 1376,1566 1375,1551 1375,1551 1375,1551 1374,1514 1374,1514 1374,1514 1373.04,1502 1373.04,1502 1373.04,1502 1373.04,1488 1373.04,1488 1373.04,1488 1372,1473 1372,1473 1372,1473 1372,1460 1372,1460 1372,1460 1371,1446 1371,1446 1371,1446 1370,1410 1370,1410 1370,1410 1369,1395 1369,1395 1369,1395 1368,1358 1368,1358 1368,1358 1367.04,1346 1367.04,1346 1367.04,1346 1367.04,1332 1367.04,1332 1367.04,1332 1366.04,1320 1366.04,1320 1366.04,1320 1366.04,1306 1366.04,1306 1366.04,1306 1365,1289 1365,1289 1365,1289 1363,1228 1363,1228 1363,1228 1362,1213 1362,1213 1362,1213 1361,1176 1361,1176 1361,1176 1360.04,1164 1360.04,1164 1360.04,1164 1360.04,1150 1360.04,1150 1360.04,1150 1359,1135 1359,1135 1359,1135 1359,1122 1359,1122 1359,1122 1358,1108 1358,1108 1358,1108 1357,1072 1357,1072 1357,1072 1356,1057 1356,1057 1356,1057 1355,1021 1355,1021 1355,1021 1354.04,1009 1354.04,1009 1354.04,1009 1354.04,995 1354.04,995 1354.04,995 1353.04,983 1353.04,983 1353.04,983 1353.04,969 1353.04,969 1353.04,969 1352,954 1352,954 1352,954 1351,917 1351,917 1351,917 1350.04,905 1350.04,905 1350.04,905 1350.04,891 1350.04,891 1350.04,891 1349,876 1349,876 1349,876 1350,861 1350,861 1350.22,841.68 1349.04,816.97 1345.75,798 1344.90,793.12 1343.14,780.37 1338,779 1336.15,758.46 1311.15,734.06 1296,721.61 1275.63,704.88 1239.62,684.74 1216,669.95 1216,669.95 1158,634.19 1158,634.19 1158,634.19 1128,616 1128,616 1128,616 1135.72,602 1135.72,602 1135.72,602 1168,547 1168,547 1168,547 1122,522 1122,522 1122,522 1099,510 1099,510 1099,510 1123.13,477 1123.13,477 1123.13,477 1176.87,407 1176.87,407 1176.87,407 1196,382 1196,382 1196,382 1205.04,372.40 1205.04,372.40 1205.04,372.40 1218,376.20 1218,376.20 1218,376.20 1252,390 1252,390 1252,390 1294,319 1294,319 1294,319 1170,245.99 1170,245.99 1170,245.99 1118,215.40 1118,215.40 1118,215.40 1083,195 1083,195 Z M 1344,804 C 1344,804 1344,809 1344,809 1344,809 1344,804 1344,804 Z M 1345,812 C 1345,812 1345,817 1345,817 1345,817 1345,812 1345,812 Z M 1346,821 C 1346,821 1346,826 1346,826 1346,826 1346,821 1346,821 Z M 1347,830 C 1347,830 1347,836 1347,836 1347,836 1347,830 1347,830 Z M 1348,841 C 1348,841 1348,848 1348,848 1348,848 1348,841 1348,841 Z M 1349,853 C 1349,853 1349,862 1349,862 1347.69,858.70 1347.69,856.30 1349,853 Z M 1029,1085 C 1029,1085 1029,1086 1029,1086 1029,1086 1028,1085 1028,1085 1028,1085 1029,1085 1029,1085 Z M 1031,1086 C 1031,1086 1031,1087 1031,1087 1031,1087 1030,1086 1030,1086 1030,1086 1031,1086 1031,1086 Z M 1032,1087 C 1032,1087 1032,1088 1032,1088 1032,1088 1031,1087 1031,1087 1031,1087 1032,1087 1032,1087 Z M 1033,1088 C 1033,1088 1033,1089 1033,1089 1033,1089 1032,1088 1032,1088 1032,1088 1033,1088 1033,1088 Z M 1034,1089 C 1034,1089 1034,1090 1034,1090 1034,1090 1033,1089 1033,1089 1033,1089 1034,1089 1034,1089 Z M 1035,1090 C 1035,1090 1035,1091 1035,1091 1035,1091 1034,1090 1034,1090 1034,1090 1035,1090 1035,1090 Z M 1043,1098 C 1043,1098 1043,1099 1043,1099 1043,1099 1042,1098 1042,1098 1042,1098 1043,1098 1043,1098 Z M 1044,1099 C 1044,1099 1044,1100 1044,1100 1044,1100 1043,1099 1043,1099 1043,1099 1044,1099 1044,1099 Z M 1045,1100 C 1045,1100 1045,1101 1045,1101 1045,1101 1044,1100 1044,1100 1044,1100 1045,1100 1045,1100 Z M 1046,1101 C 1046,1101 1046,1102 1046,1102 1046,1102 1045,1101 1045,1101 1045,1101 1046,1101 1046,1101 Z M 1047,1102 C 1047,1102 1047,1103 1047,1103 1047,1103 1046,1102 1046,1102 1046,1102 1047,1102 1047,1102 Z M 1049,1105 C 1049,1105 1049,1106 1049,1106 1049,1106 1048,1105 1048,1105 1048,1105 1049,1105 1049,1105 Z M 1050,1106 C 1050,1106 1050,1107 1050,1107 1050,1107 1049,1106 1049,1106 1049,1106 1050,1106 1050,1106 Z M 1052,1109 C 1052,1109 1052,1110 1052,1110 1052,1110 1051,1109 1051,1109 1051,1109 1052,1109 1052,1109 Z M 1053,1110 C 1053,1110 1053,1111 1053,1111 1053,1111 1052,1110 1052,1110 1052,1110 1053,1110 1053,1110 Z M 1054,1112 C 1054,1112 1054,1113 1054,1113 1054,1113 1053,1112 1053,1112 1053,1112 1054,1112 1054,1112 Z M 1055,1113 C 1055,1113 1055,1114 1055,1114 1055,1114 1054,1113 1054,1113 1054,1113 1055,1113 1055,1113 Z M 1056,1115 C 1056,1115 1056,1116 1056,1116 1056,1116 1055,1115 1055,1115 1055,1115 1056,1115 1056,1115 Z M 1057,1116 C 1057,1116 1057,1117 1057,1117 1057,1117 1056,1116 1056,1116 1056,1116 1057,1116 1057,1116 Z M 1058,1118 C 1058,1118 1058,1119 1058,1119 1058,1119 1057,1118 1057,1118 1057,1118 1058,1118 1058,1118 Z M 1059,1120 C 1059,1120 1059,1121 1059,1121 1059,1121 1058,1120 1058,1120 1058,1120 1059,1120 1059,1120 Z M 1060,1122 C 1060,1122 1060,1123 1060,1123 1060,1123 1059,1122 1059,1122 1059,1122 1060,1122 1060,1122 Z M 1063,1128 C 1063,1128 1063,1129 1063,1129 1063,1129 1062,1128 1062,1128 1062,1128 1063,1128 1063,1128 Z M 1064,1130 C 1064,1130 1064,1131 1064,1131 1064,1131 1063,1130 1063,1130 1063,1130 1064,1130 1064,1130 Z M 1066,1135 C 1066,1135 1066,1136 1066,1136 1066,1136 1065,1135 1065,1135 1065,1135 1066,1135 1066,1135 Z M 1072,1194 C 1072,1194 1072,1199 1072,1199 1072,1199 1072,1194 1072,1194 Z M 1062,1237 C 1062,1237 1062,1238 1062,1238 1062,1238 1061,1237 1061,1237 1061,1237 1062,1237 1062,1237 Z M 1060,1242 C 1060,1242 1060,1243 1060,1243 1060,1243 1059,1242 1059,1242 1059,1242 1060,1242 1060,1242 Z M 1057,1249 C 1057,1249 1057,1250 1057,1250 1057,1250 1056,1249 1056,1249 1056,1249 1057,1249 1057,1249 Z M 1056,1251 C 1056,1251 1056,1252 1056,1252 1056,1252 1055,1251 1055,1251 1055,1251 1056,1251 1056,1251 Z M 1055,1253 C 1055,1253 1055,1254 1055,1254 1055,1254 1054,1253 1054,1253 1054,1253 1055,1253 1055,1253 Z" />
</svg>
