<svg viewBox="0 0 2000 2000" height="100%">
<rect fill="#2b98f0" x="0" y="0" width="2000" height="2000" rx="300" ry="300" />
<path fill="#ffffff" d="M 1657,1332 C 1657,1332 1923,907 1923,907 1923,907 1796,821 1796,821 1796,821 1780,857 1780,857 1780,857 1332,1018 1332,1018 1332,1018 1214,945 1214,945 1214,945 1183,994 1183,994 1183,994 1218,1017 1218,1017 1218,1017 1083,1212 1083,1212 1083,1212 766,1021 766,1021 766,1021 617,1249 617,1249 617,1249 419,1119 419,1119 419,1119 477,1035 477,1035 477,1035 541,1070 541,1070 541,1070 588,1007 588,1007 588,1007 347,860 347,860 347,860 301,923 301,923 301,923 371,970 371,970 371,970 313,1049 313,1049 313,1049 246,1008 245,1011 150,1174 282,1444 385,1604 385,1604 696,1800 696,1800 696,1800 1410,1368 1410,1368 1410,1368 1166,1219 1166,1219 1166,1219 1251,1100 1251,1100 1251,1100 1591,1299 1591,1299" />
<circle fill="#2b98f0" cx="822" cy="1228" r="75" />
<circle fill="#2b98f0" cx="1007" cy="1342" r="75" />
<circle fill="#2b98f0" cx="1192" cy="1456" r="75" />
<path fill="#2b98f0" d="M 1367,1033 C 1367,1033 1752,903 1752,903 1752,903 1569,1164 1569,1164" />
<path fill="#eeeeee" d="M 1146,1514 C 556,1866 204.34,1973.32 198,1984 226.31,1991.45 252.15,1999.95 282,2000 282,2000 420,2000 420,2000 420,2000 718,2000 718,2000 718,2000 1718,2000 1718,2000 1735.51,1999.97 1752.95,1996.66 1770,1992.85 1873.15,1969.77 1952.85,1893.48 1986,1794 1993.60,1771.19 1999.96,1742.05 2000,1718 2000,1718 2000,1094 2000,1094 1992.10,1094.65 1744,1098 1146,1514 Z" />
</svg>
