<svg viewBox="0 0 2000 2000">
<rect fill="#2b98f0" x="0" y="0" width="2000" height="2000" rx="300" ry="300" />
<g fill="#ffffff" stroke="#ffffff" stroke-width="65" stroke-linecap="round" stroke-linejoin="round">
	<path d="M 585,334.50 L 601.50,387 580.50,392.50 562.50,340 Z" />
	<path d="M 840,335 L 829,388.50 806,381.50 823.50,329 Z" />
	<path d="M 747.50,1015.19 L 748.28,940.73  643.41,939.94  646.29,1014.67 Z" />
</g>
<g fill="none" stroke="#ffffff" stroke-width="65" stroke-linecap="round" stroke-linejoin="round">
	<path d="M 825,361.50 C 825,361.50 1085,436.50 1083,568.50 1081,700.50 698.50,983.50 698.50,983.50 698.50,983.50 313,690.50 316,569.50 319,448.50 576.50,364.50 576.50,364.50" />
	<path d="M 703.62,990.38 C 703.62,990.38 608.03,1367.41 773.98,1492.21 939.93,1617 1501.50,1068.71 1664.79,1259.88 1761.71,1374.05 1553.28,1502.83 1553.28,1502.83" />
	<circle cx="1455" cy="1547" r="108" />
	<circle cx="1455" cy="1547" r="10" />
</g>
</svg>
