<svg class="work-in-progress" viewBox="0 0 2000 2000">
<rect fill="#2b98f0" x="0" y="0" width="2000" height="2000" rx="300" ry="300" />
<g transform="translate(1000,1000)rotate(-10)translate(-1000,-1000)">
<g fill="#ffffff" stroke="none" stroke-width="1" stroke-linecap="round" stroke-linejoin="round">
	<circle cx="1025" cy="798" r="83" />
	<path d="M 748,828 C 740,831 732,833 726,838 719,844 715,853 712,862 712,862 653,1009 653,1009 653,1009 649,1019 649,1019 649,1023 651,1027 652,1032 653,1035 654,1038 656,1042 660,1049 673,1059 682,1061 684,1062 687,1062 690,1062 694,1062 699,1062 703,1061 706,1060 710,1057 714,1058 716,1058 724,1064 727,1065 727,1065 775,1096 775,1096 778,1098 782,1101 781,1106 780,1112 770,1128 766,1134 766,1134 578,1461 578,1461 573,1469 566,1480 566,1491 565,1495 565,1508 566,1512 569,1521 583,1535 594,1538 597,1539 604,1539 609,1539 611,1539 614,1539 617,1538 625,1536 636,1527 641,1521 641,1521 649,1506 649,1506 649,1506 785,1270 785,1270 789,1263 794,1254 804,1259 810,1264 815,1274 821,1281 835,1298 849,1317 862,1337 866,1342 877,1356 876,1363 875,1367 863,1387 861,1393 861,1393 814,1482 814,1482 812,1485 813,1488 812,1492 810,1509 814,1523 830,1533 836,1537 837,1538 845,1539 849,1539 861,1539 865,1538 867,1537 869,1535 872,1534 876,1532 878,1531 881,1527 890,1518 902,1492 909,1480 909,1480 949,1404 949,1404 956,1390 967,1374 968,1359 969,1353 967,1346 966,1341 964,1334 959,1328 955,1323 955,1323 912,1263 912,1263 912,1263 888,1230 888,1230 886,1228 886,1226 886,1224 886,1218 897,1201 900,1196 902,1191 904,1186 911,1186 915,1186 918,1189 922,1191 922,1191 1028,1258 1035,1266 1044,1276 1041,1281 1044,1289 1048,1298 1058,1311 1069,1314 1074,1316 1082,1316 1088,1316 1088,1316 1109,1313 1109,1313 1112,1313 1128,1323 1132,1326 1132,1326 1174,1354 1174,1354 1174,1354 1194,1368 1194,1368 1198,1370 1200,1372 1200,1377 1200,1381 1194,1388 1191,1392 1191,1392 1170,1422 1170,1422 1168,1425 1161,1433 1162,1436 1163,1440 1167,1442 1170,1443 1170,1443 1230,1469 1230,1469 1230,1469 1270,1479 1280,1480 1280,1480 1342,1474 1355,1469 1358,1468 1360,1468 1363,1464 1366,1459 1365,1453 1364,1448 1364,1448 1355,1402 1354,1399 1354,1399 1347,1381 1347,1381 1334,1354 1320,1335 1299,1314 1291,1306 1280,1294 1270,1289 1262,1286 1258,1294 1255,1300 1255,1300 1237,1326 1234,1331 1230,1335 1226,1340 1220,1338 1215,1337 1199,1325 1195,1322 1195,1322 1150,1294 1150,1294 1142,1289 1131,1285 1127,1277 1123,1271 1126,1266 1123,1260 1123,1260 1120,1250 1120,1250 1120,1250 1047,964 1047,964 1047,960 1040,946 1038,944 1034,938 1023,931 1017,928 1017,928 776,833 776,833 776,833 764,831 764,831 757,829 755,827 748,828 Z M 780,927 C 791,926 790,929 799,932 799,932 837,948 844,950 848,951 862,956 863,962 864,966 858,976 855,981 855,981 813,1054 813,1054 811,1058 807,1065 802,1066 798,1067 795,1065 793,1063 793,1063 748,1034 748,1034 743,1031 740,1030 738,1025 735,1018 739,1014 741,1009 741,1009 770,940 770,940 773,933 771,929 780,927 Z M 979,1064 C 990,1063 988,1073 990,1081 991,1083 1014,1171 1014,1171 1015,1180 1019,1178 1019,1194 1019,1197 1018,1201 1014,1203 1010,1204 1005,1201 1002,1199 1002,1199 946,1163 946,1163 941,1160 933,1156 931,1151 928,1144 934,1135 938,1129 938,1129 964,1083 964,1083 968,1077 972,1067 979,1064 Z" />
</g>
<g fill="#ffffff" stroke="#ffffff" stroke-width="65" stroke-linecap="round" stroke-linejoin="round">
</g>
<g fill="none" stroke="#ffffff" stroke-width="65" stroke-linecap="round" stroke-linejoin="round">
	<path d="M 778,446 C 814,380 891,257 966,260 1036,262 1094,350 1150,446 1206,542 1412,900 1412,900 1412,900 1652,1322 1688,1390 1724,1458 1792,1518 1752,1608 1712,1698 1612,1670 1510,1672 1408,1674 972,1674 972,1674 972,1674 466,1678 382,1678 298,1678 232,1690 178,1628 124,1566 194,1442 258,1346 322,1250 524,880 524,880 524,880 742,512 778,446 Z" />
</g>
</g>
</svg>
